{
	"nodes":[{
		"scale":[1.0,
		1.0,
		1.0],
		"name":"Модель 01",
		"translation":[-949.524658203125,
		0.0,
		-874.82421875],
		"rotation":[0.0,
		-1.0,
		0.0,
		-6.123234262925839e-17],
		"children":[1],
		"mesh":0
	},
	{
		"scale":[1.0,
		1.0,
		1.0],
		"name":"Sphere",
		"translation":[0.9728301763534546,
		159.09400939941407,
		-2.2551026344299318],
		"rotation":[0.0,
		0.0,
		0.0,
		-1.0],
		"mesh":1
	},
	{
		"scale":[1.0,
		1.0,
		1.0],
		"name":"Camera",
		"translation":[-950.0,
		170.0,
		-372.3735046386719],
		"rotation":[0.0,
		0.0,
		0.0,
		-1.0],
		"camera":0
	},
	{
		"scale":[1.0,
		1.0,
		1.0],
		"name":"Walls_inside",
		"translation":[0.0,
		0.0,
		0.0],
		"rotation":[-8.881784197001253e-16,
		0.0,
		0.0,
		-1.0],
		"mesh":2
	},
	{
		"scale":[1.0,
		1.0,
		1.0],
		"name":"Boole",
		"translation":[-23.383460998535158,
		415.0,
		-19.824190139770509],
		"rotation":[1.1626928646935276e-31,
		-1.0,
		-1.8988214981889878e-15,
		-6.123234262925839e-17],
		"children":[5]
	},
	{
		"name":"Ceiling-Null",
		"mesh":3
	},
	{
		"scale":[1.0,
		1.0,
		1.0],
		"name":"Floor",
		"translation":[-23.383460998535158,
		-5.0,
		-109.82418823242188],
		"rotation":[0.0,
		-1.0,
		0.0,
		-6.123234262925839e-17],
		"mesh":4
	}],
	"asset":{
		"version":"2.0",
		"generator":"Created using the official Cinema 4D glTF Exporter 1.000x284978"
	},
	"scenes":[{
		"nodes":[0,
		2,
		3,
		4,
		6]
	}],
	"meshes":[{
		"name":"Модель 01",
		"primitives":[{
			"attributes":{
				"POSITION":1,
				"NORMAL":2,
				"TEXCOORD_0":3
			},
			"indices":0
		}]
	},
	{
		"name":"Sphere",
		"primitives":[{
			"attributes":{
				"POSITION":5,
				"NORMAL":6,
				"TEXCOORD_0":7
			},
			"indices":4
		}]
	},
	{
		"name":"Walls_inside",
		"primitives":[{
			"attributes":{
				"POSITION":11,
				"NORMAL":12,
				"TEXCOORD_0":13
			},
			"indices":10,
			"material":0
		}]
	},
	{
		"name":"Ceiling-Null",
		"primitives":[{
			"attributes":{
				"POSITION":15,
				"NORMAL":16,
				"TEXCOORD_0":17
			},
			"indices":14
		}]
	},
	{
		"name":"Floor",
		"primitives":[{
			"attributes":{
				"POSITION":19,
				"NORMAL":20,
				"TEXCOORD_0":21
			},
			"indices":18,
			"material":1
		}]
	}],
	"cameras":[{
		"type":"perspective",
		"perspective":{
			"znear":0.009999999776482582,
			"zfar":10000000000.0,
			"aspectRatio":1.7777777910232545,
			"yfov":0.769618570804596
		}
	}],
	"accessors":[{
		"bufferView":0,
		"type":"SCALAR",
		"count":36,
		"componentType":5123,
		"byteOffset":0,
		"min":[0],
		"max":[23]
	},
	{
		"bufferView":1,
		"type":"VEC3",
		"count":24,
		"componentType":5126,
		"byteOffset":0,
		"min":[-36.0,
		1.0629557371139527,
		-36.0],
		"max":[36.0,
		136.0,
		36.0]
	},
	{
		"bufferView":1,
		"type":"VEC3",
		"count":24,
		"componentType":5126,
		"byteOffset":12,
		"min":[-1.0,
		-1.0,
		-1.0],
		"max":[1.0,
		1.0,
		1.0]
	},
	{
		"bufferView":1,
		"type":"VEC2",
		"count":24,
		"componentType":5126,
		"byteOffset":24,
		"min":[0.0,
		0.0],
		"max":[1.0,
		1.0]
	},
	{
		"bufferView":2,
		"type":"SCALAR",
		"count":900,
		"componentType":5123,
		"byteOffset":0,
		"min":[0],
		"max":[211]
	},
	{
		"bufferView":3,
		"type":"VEC3",
		"count":212,
		"componentType":5126,
		"byteOffset":0,
		"min":[-23.094011306762697,
		-23.094011306762697,
		-23.094011306762697],
		"max":[23.094011306762697,
		23.094011306762697,
		23.094011306762697]
	},
	{
		"bufferView":3,
		"type":"VEC3",
		"count":212,
		"componentType":5126,
		"byteOffset":12,
		"min":[-0.9691706895828247,
		-0.9691706895828247,
		-0.9691706895828247],
		"max":[0.9691706895828247,
		0.9691706895828247,
		0.9691706895828247]
	},
	{
		"bufferView":3,
		"type":"VEC2",
		"count":212,
		"componentType":5126,
		"byteOffset":24,
		"min":[0.0,
		0.0],
		"max":[1.0,
		1.0]
	},
	{
		"bufferView":4,
		"type":"SCALAR",
		"count":241,
		"componentType":5126,
		"byteOffset":0,
		"min":[0.0],
		"max":[8.0]
	},
	{
		"bufferView":4,
		"type":"VEC3",
		"count":241,
		"componentType":5126,
		"byteOffset":964,
		"min":[-950.0,
		170.0,
		-372.3735046386719],
		"max":[350.0,
		170.0,
		-372.3735046386719]
	},
	{
		"bufferView":5,
		"type":"SCALAR",
		"count":420,
		"componentType":5123,
		"byteOffset":0,
		"min":[0],
		"max":[197]
	},
	{
		"bufferView":6,
		"type":"VEC3",
		"count":198,
		"componentType":5126,
		"byteOffset":0,
		"min":[-1468.383056640625,
		-5.0,
		-1089.823974609375],
		"max":[2386.616943359375,
		415.0,
		450.1758117675781]
	},
	{
		"bufferView":6,
		"type":"VEC3",
		"count":198,
		"componentType":5126,
		"byteOffset":12,
		"min":[-1.0,
		0.0,
		-1.0],
		"max":[1.0,
		0.0,
		1.0]
	},
	{
		"bufferView":6,
		"type":"VEC2",
		"count":198,
		"componentType":5126,
		"byteOffset":24,
		"min":[0.00390625,
		0.35997897386550906],
		"max":[0.99609375,
		0.99609375]
	},
	{
		"bufferView":7,
		"type":"SCALAR",
		"count":252,
		"componentType":5123,
		"byteOffset":0,
		"min":[0],
		"max":[113]
	},
	{
		"bufferView":8,
		"type":"VEC3",
		"count":114,
		"componentType":5126,
		"byteOffset":0,
		"min":[-2410.0,
		-30.0,
		-470.0],
		"max":[2105.0,
		10.0,
		1070.0]
	},
	{
		"bufferView":8,
		"type":"VEC3",
		"count":114,
		"componentType":5126,
		"byteOffset":12,
		"min":[-1.0,
		-1.0,
		-1.0],
		"max":[1.0,
		1.0,
		1.0]
	},
	{
		"bufferView":8,
		"type":"VEC2",
		"count":114,
		"componentType":5126,
		"byteOffset":24,
		"min":[0.0,
		0.16012677550315858],
		"max":[1.0,
		1.0]
	},
	{
		"bufferView":9,
		"type":"SCALAR",
		"count":21,
		"componentType":5123,
		"byteOffset":0,
		"min":[0],
		"max":[8]
	},
	{
		"bufferView":10,
		"type":"VEC3",
		"count":9,
		"componentType":5126,
		"byteOffset":0,
		"min":[-2410.0,
		5.0,
		-560.0],
		"max":[1445.0,
		5.0,
		980.0]
	},
	{
		"bufferView":10,
		"type":"VEC3",
		"count":9,
		"componentType":5126,
		"byteOffset":12,
		"min":[-1.5570444600149574e-18,
		1.0,
		0.0],
		"max":[8.948149707149406e-20,
		1.0,
		3.6773702470984956e-16]
	},
	{
		"bufferView":10,
		"type":"VEC2",
		"count":9,
		"componentType":5126,
		"byteOffset":24,
		"min":[0.00390625,
		0.5997334718704224],
		"max":[0.99609375,
		0.99609375]
	}],
	"bufferViews":[{
		"buffer":0,
		"byteOffset":0,
		"byteLength":72,
		"target":34963
	},
	{
		"buffer":0,
		"byteOffset":72,
		"byteLength":768,
		"target":34962,
		"byteStride":32
	},
	{
		"buffer":1,
		"byteOffset":0,
		"byteLength":1800,
		"target":34963
	},
	{
		"buffer":1,
		"byteOffset":1800,
		"byteLength":6784,
		"target":34962,
		"byteStride":32
	},
	{
		"buffer":2,
		"byteOffset":0,
		"byteLength":3856
	},
	{
		"buffer":3,
		"byteOffset":0,
		"byteLength":840,
		"target":34963
	},
	{
		"buffer":3,
		"byteOffset":840,
		"byteLength":6336,
		"target":34962,
		"byteStride":32
	},
	{
		"buffer":4,
		"byteOffset":0,
		"byteLength":504,
		"target":34963
	},
	{
		"buffer":4,
		"byteOffset":504,
		"byteLength":3648,
		"target":34962,
		"byteStride":32
	},
	{
		"buffer":5,
		"byteOffset":0,
		"byteLength":42,
		"target":34963
	},
	{
		"buffer":5,
		"byteOffset":44,
		"byteLength":288,
		"target":34962,
		"byteStride":32
	}],
	"buffers":[{
		"uri":"data:application/octet-stream;base64,",
		"byteLength":840
	},
	{
		"uri":"data:application/octet-stream;base64,",
		"byteLength":8584
	},
	{
		"uri":"data:application/octet-stream;base64,",
		"byteLength":3856
	},
	{
		"uri":"data:application/octet-stream;base64,",
		"byteLength":7176
	},
	{
		"uri":"data:application/octet-stream;base64,",
		"byteLength":4152
	},
	{
		"uri":"data:application/octet-stream;base64,",
		"byteLength":332
	}],
	"images":[{
		"uri":"data:image/jpeg;base64,"
	},
	{
		"uri":"data:image/jpeg;base64,"
	}],
	"samplers":[{
		"magFilter":9729,
		"minFilter":9729,
		"wrapS":10497,
		"wrapT":10497
	},
	{
		"magFilter":9729,
		"minFilter":9729,
		"wrapS":10497,
		"wrapT":10497
	}],
	"textures":[{
		"sampler":0,
		"source":0
	},
	{
		"sampler":1,
		"source":1
	}],
	"materials":[{
		"pbrMetallicRoughness":{
			"baseColorTexture":{
				"index":0
			},
			"baseColorFactor":[0.8,
			0.8,
			0.8,
			1.0],
			"metallicFactor":0.0,
			"roughnessFactor":0.43
		},
		"emissiveFactor":[0.0,
		0.0,
		0.0],
		"alphaMode":"OPAQUE",
		"doubleSided":false,
		"name":"Baked_Walls"
	},
	{
		"pbrMetallicRoughness":{
			"baseColorTexture":{
				"index":1
			},
			"baseColorFactor":[0.8,
			0.8,
			0.8,
			1.0],
			"metallicFactor":0.02,
			"roughnessFactor":0.61
		},
		"emissiveFactor":[0.0,
		0.0,
		0.0],
		"alphaMode":"OPAQUE",
		"doubleSided":false,
		"name":"Baked_Floor"
	}],
	"animations":[{
		"channels":[{
			"sampler":0,
			"target":{
				"node":2,
				"path":"translation"
			}
		}],
		"samplers":[{
			"input":8,
			"output":9,
			"interpolation":"LINEAR"
		}]
	}]
}